<svg xmlns="http://www.w3.org/2000/svg" xmlns:xlink="http://www.w3.org/1999/xlink" width="150" zoomAndPan="magnify" viewBox="0 0 112.5 112.499997" height="150" preserveAspectRatio="xMidYMid meet" version="1.0"><defs><clipPath id="0502b89fa6"><path d="M 12.910156 12 L 99.910156 12 L 99.910156 99 L 12.910156 99 Z M 12.910156 12 " clip-rule="nonzero"/></clipPath></defs><g clip-path="url(#0502b89fa6)"><path fill="#000000" d="M 99.910156 24.332031 C 99.910156 21.175781 98.671875 18.207031 96.429688 16.011719 C 91.757812 11.347656 84.160156 11.347656 79.488281 16.011719 L 74.542969 20.949219 L 21.382812 20.949219 C 19.089844 20.949219 16.984375 21.816406 15.382812 23.417969 C 13.78125 25.019531 12.910156 27.167969 12.910156 29.40625 L 12.910156 90.445312 C 12.910156 92.730469 13.78125 94.832031 15.382812 96.433594 C 16.984375 98.035156 19.136719 98.902344 21.382812 98.902344 L 82.511719 98.902344 C 84.800781 98.902344 86.90625 98.035156 88.507812 96.433594 C 90.109375 94.832031 90.980469 92.683594 90.980469 90.445312 L 90.980469 38.046875 L 92.722656 36.3125 L 96.382812 32.652344 C 98.671875 30.457031 99.910156 27.488281 99.910156 24.332031 Z M 54.347656 69.914062 L 49.542969 65.113281 L 77.152344 37.546875 C 77.792969 36.90625 77.792969 35.808594 77.152344 35.167969 C 76.511719 34.527344 75.414062 34.527344 74.773438 35.167969 L 47.160156 62.738281 L 42.351562 57.890625 L 77.199219 23.097656 L 89.195312 35.078125 Z M 41.160156 61.503906 L 50.777344 71.105469 L 39.558594 72.703125 Z M 87.636719 90.488281 C 87.636719 91.863281 87.089844 93.140625 86.128906 94.101562 C 85.164062 95.0625 83.882812 95.609375 82.511719 95.609375 L 21.382812 95.609375 C 20.007812 95.609375 18.726562 95.0625 17.761719 94.101562 C 16.800781 93.140625 16.253906 91.863281 16.253906 90.488281 L 16.253906 29.40625 C 16.253906 28.035156 16.800781 26.753906 17.761719 25.796875 C 18.726562 24.835938 20.007812 24.285156 21.382812 24.285156 L 71.152344 24.285156 L 38.734375 56.703125 C 38.597656 56.839844 38.460938 57.023438 38.414062 57.207031 C 38.367188 57.25 38.367188 57.34375 38.367188 57.386719 C 38.324219 57.480469 38.324219 57.570312 38.277344 57.617188 L 35.894531 74.394531 C 35.804688 74.945312 35.988281 75.449219 36.355469 75.8125 C 36.675781 76.132812 37.085938 76.316406 37.542969 76.316406 C 37.636719 76.316406 37.683594 76.316406 37.773438 76.316406 L 54.578125 73.9375 C 54.671875 73.9375 54.761719 73.894531 54.808594 73.847656 C 54.851562 73.847656 54.945312 73.800781 54.992188 73.800781 C 55.171875 73.710938 55.355469 73.617188 55.496094 73.480469 L 87.59375 41.433594 L 87.59375 90.488281 Z M 91.578125 32.746094 L 79.578125 20.71875 L 81.914062 18.386719 C 83.515625 16.789062 85.667969 15.875 87.957031 15.875 C 90.25 15.875 92.402344 16.742188 94.003906 18.386719 C 95.605469 19.988281 96.476562 22.09375 96.476562 24.332031 C 96.476562 26.574219 95.605469 28.675781 94.003906 30.277344 Z M 91.578125 32.746094 " fill-opacity="1" fill-rule="nonzero"/></g></svg>